<?xml version="1.0" encoding="utf-8"?>
<!-- Generator: Adobe Illustrator 25.2.3, SVG Export Plug-In . SVG Version: 6.00 Build 0)  -->
<svg version="1.1" id="圖層_1" xmlns="http://www.w3.org/2000/svg" xmlns:xlink="http://www.w3.org/1999/xlink" x="0px" y="0px"
	 viewBox="0 0 14 14" style="enable-background:new 0 0 14 14;" xml:space="preserve">
<style type="text/css">
	.st0{opacity:0.4;fill:#37352F;}
</style>
<path class="st0" d="M7,13c3.3,0,6-2.7,6-6s-2.7-6-6-6S1,3.7,1,7S3.7,13,7,13z M3.8,5.3C3.7,5.2,3.7,5.1,3.8,5c0,0,0.1,0,0.1,0h6.2
	c0.1,0,0.2,0.1,0.2,0.2c0,0,0,0.1,0,0.1l-3.1,4C7.1,9.4,7,9.4,6.9,9.3c0,0,0,0,0,0L3.8,5.3z"/>
</svg>
