<?xml version="1.0" encoding="utf-8"?>
<!-- Generator: Adobe Illustrator 25.2.3, SVG Export Plug-In . SVG Version: 6.00 Build 0)  -->
<svg version="1.1" id="圖層_1" xmlns="http://www.w3.org/2000/svg" xmlns:xlink="http://www.w3.org/1999/xlink" x="0px" y="0px"
	 viewBox="0 0 14 14" style="enable-background:new 0 0 14 14;" xml:space="preserve">
<style type="text/css">
	.st0{opacity:0.4;fill:#37352F;}
</style>
<path class="st0" d="M7.8,7.1l-3.2,4.2c0,0.1-0.1,0.2-0.1,0.2c0,0.2,0.2,0.4,0.3,0.4h6.2c0.5,0,0.9,0.4,0.9,0.9v0.4
	c0,0.5-0.4,0.9-0.9,0.9H1.9C1.4,14,1,13.6,1,13.1v-0.4c0-0.2,0.1-0.4,0.2-0.5l3.2-4.3c0.4-0.5,0.4-1.1,0-1.6l-3-4
	C1.3,2,1.2,1.9,1.2,1.7V0.9C1.2,0.4,1.6,0,2.1,0h8.8c0.5,0,0.9,0.4,0.9,0.9v0.4c0,0.5-0.4,0.9-0.9,0.9H5.1c-0.2,0-0.3,0.2-0.3,0.4
	c0,0.1,0,0.2,0.1,0.2l2.9,4c0,0.1,0.1,0.1,0.1,0.2C7.8,7,7.8,7,7.8,7.1z"/>
</svg>
